<?xml version="1.0" encoding="utf-8"?>
<!-- Generator: Adobe Illustrator 18.1.1, SVG Export Plug-In . SVG Version: 6.00 Build 0)  -->
<!DOCTYPE svg PUBLIC "-//W3C//DTD SVG 1.1//EN" "http://www.w3.org/Graphics/SVG/1.1/DTD/svg11.dtd">
<svg version="1.1" id="Layer_1" xmlns="http://www.w3.org/2000/svg" xmlns:xlink="http://www.w3.org/1999/xlink" x="0px" y="0px"
	 viewBox="0 0 634.2 197.2" enable-background="new 0 0 634.2 197.2" xml:space="preserve">
<g>
	<g>
		<path fill="#284233" d="M187,104.2c0.5-3.1,1-6.6,1-9.9V61.1c0-0.7-0.2-1.2-0.9-1.4l-3.7-1.3l0.7-5.5h14v18.8l0.3,0.1
			c2.9-2.4,6.1-3.7,10.3-3.7c7.3,0,13.1,4.8,13.1,17.4c0,14-5.9,19.5-14.3,19.5c-4.5,0-7.9-1.9-10-4.3l-0.3,0.1l-0.5,3.4H187z
			 M198.2,94.4c1.6,1.4,3.9,2.7,6.3,2.7c4.5,0,6.6-4.2,6.6-11c0-5.3-1.7-9.9-6.3-9.9c-2.4,0-5,1.3-6.6,2.4V94.4z"/>
		<path fill="#284233" d="M226,104.2v-5.5l3.1-0.4c1-0.1,1.1-0.3,1.1-1.4V77c0-0.7-0.2-1.2-0.9-1.4l-3.7-1.3l0.7-5.5h12l0.8,5.4h0.4
			c2.2-3.5,5.2-6.1,9.6-6.1c1.6,0,4.7,0.3,5.9,0.6v12.4l-8.2-0.3l-0.7-3.6c-0.1-0.6-0.3-0.7-0.9-0.7c-1.8,0-3.9,1.5-4.9,2.4v18
			c0,1.1,0.1,1.3,1.1,1.4l6.7,0.5v5.4H226z"/>
		<path fill="#284233" d="M257.7,104.2v-5.4l3.5-0.5c1-0.1,1.1-0.3,1.1-1.4V77c0-0.7-0.2-1.2-0.9-1.4l-3.7-1.3l0.7-5.5h14.1V97
			c0,1.1,0.1,1.2,1.1,1.4l3.5,0.5v5.4H257.7z M266.5,63.3c-3.9,0-6.1-2.2-6.1-6.1s2.2-6,6.1-6c3.9,0,6.2,2.1,6.2,6
			S270.4,63.3,266.5,63.3z"/>
		<path fill="#284233" d="M300.8,79.4l-0.7-3.5c-0.1-0.5-0.2-0.8-0.7-1c-0.9-0.3-2.5-0.5-4.4-0.5c-3.4,0-5.3,1.3-5.3,3.5
			c0,2.8,3.7,3.4,7.9,4.4c5.4,1.2,11.4,3.1,11.4,11.1c0,8.3-6.7,11.7-15.4,11.7c-6.2,0-12.2-1.6-13.5-2.4v-9.9l7.3,0.5l0.7,3.9
			c0.1,0.6,0.2,0.9,0.8,1c0.8,0.3,2.7,0.7,5.2,0.7c3.6,0,5.6-1,5.6-3.5c0-2.7-2.7-3.5-6.2-4.1c-5.7-1-13.2-2.2-13.2-11.2
			c0-8.4,7.2-11.9,15-11.9c5.4,0,10.6,1.2,12.5,2v9.9L300.8,79.4z"/>
		<path fill="#284233" d="M339,102.3c-2.9,1.4-7.2,2.7-11.1,2.7c-8.1,0-11.2-3.3-11.2-10.9V76.2c0-0.4,0-0.7-0.5-0.7h-4.8v-6.1
			c6-0.7,8.4-3.7,9.1-11.1h6.5v9.7c0,0.5,0,0.7,0.5,0.7h9.6v6.8h-10.1v16.3c0,4,1,5.6,4.6,5.6c1.9,0,3.9-0.5,5.5-1.1L339,102.3z"/>
		<path fill="#284233" d="M340.3,86.7c0-11.3,5.9-18.6,18.4-18.6c12.6,0,17.5,7.5,17.5,17.9c0,11.6-5.8,19-18.4,19
			C345.3,105,340.3,97.4,340.3,86.7z M365.4,86.3c0-8-2.4-10.9-6.9-10.9c-4.5,0-7.5,2.8-7.5,10.9c0,8.2,2.7,11.5,7.2,11.5
			C362.6,97.9,365.4,94.8,365.4,86.3z"/>
		<path fill="#284233" d="M379,104.2v-5.4l3.4-0.5c1-0.1,1.1-0.3,1.1-1.4V61.1c0-0.7-0.2-1.2-0.9-1.4l-3.7-1.3l0.7-5.5h14.1V97
			c0,1.1,0.1,1.2,1.1,1.4l3.3,0.5v5.4H379z"/>
		<path fill="#3F7548" d="M434.3,104.2l-3.7-4.4c-3.6,3.4-8,5.2-13.7,5.2c-9.1,0-15.4-5-15.4-14c0-6.3,3.3-11.2,9.8-13.9
			c-1.3-2-2.5-4.6-2.5-7.9c0-7,5.5-11.2,13.1-11.2c4.9,0,9.9,1.6,12.1,3v10.7l-7.3-0.3l-0.8-4.6c-0.1-0.7-0.3-0.9-1-1.1
			c-0.7-0.2-1.6-0.3-2.4-0.3c-2.7,0-4,1.6-4,3.7c0,2.3,1.2,4.2,3.7,7.2l7.6,9c0.8-2.5,1.3-5.5,1.6-7.5H443v5.2l-3.1,0.6
			c-0.8,0.1-1,0.3-1.2,1.2c-0.5,2.6-1.4,5.3-2.5,7.7l4.3,4.9c0.3,0.4,0.7,0.7,1.3,0.8l4,0.6v5.3H434.3z M416.1,83.4
			c-2.9,1.2-4.8,3.5-4.8,7.1c0,3.3,1.8,6.3,6.4,6.3c2.7,0,5.3-0.9,7.4-3.2L416.1,83.4z"/>
		<path fill="#284233" d="M482.2,104.2l-5.3-22.8h-0.4l-5.4,22.8h-12.2L450.3,76c-0.3-0.8-0.6-1-1.4-1.2l-2.9-0.6l1.1-5.5h17.2v5.6
			l-3.8,0.4l5.4,19.1h0.5l6.1-24.3h10.3l5.8,24.3h0.4l5.1-19.1l-3.9-0.4l0.9-5.6h14.3v5.5l-2.4,0.5c-1,0.1-1.4,0.5-1.6,1.4
			l-8.4,28.1H482.2z"/>
		<path fill="#284233" d="M529.2,104.2l-0.7-3.7l-0.3-0.1c-2.6,2.5-6,4.6-11.4,4.6c-8.6,0-9.9-5.8-9.9-10.1c0-6.8,4.2-9.9,12.7-10.5
			l7.8-0.5v-3.7c0-3.2-0.3-5.4-4.6-5.4c-3.3,0-5,0.5-5,4.6l-9.6-0.8c0-9.2,8.4-10.5,14.6-10.5c10.3,0,14.5,2.8,14.5,12.3v16.5
			c0,1.1,0.1,1.2,1.1,1.4l3.3,0.5v5.4H529.2z M527.4,89.6l-4.6,0.3c-4,0.3-5.4,1.3-5.4,4s1.6,3.7,3.9,3.7c2.3,0,4.6-1.3,6.2-2.4
			V89.6z"/>
		<path fill="#284233" d="M543.9,104.2v-5.4l3.4-0.5c1-0.1,1.1-0.3,1.1-1.4V61.1c0-0.7-0.2-1.2-0.9-1.4l-3.7-1.3l0.7-5.5h14.1V97
			c0,1.1,0.1,1.2,1.1,1.4l3.3,0.5v5.4H543.9z"/>
		<path fill="#284233" d="M597.4,101.5c-4.2,2-8.8,3.5-13.9,3.5c-13.1,0-17.6-8.2-17.6-18.8c0-12.3,7.5-18.2,16.9-18.2
			c9,0,15,4.7,15,16.5c0,0.8-0.1,3.2-0.1,4.6h-20.8c0.3,4.8,2.4,8,8,8c2.7,0,5.5-0.6,10.1-2.3L597.4,101.5z M587.6,82.6
			c-0.1-5.7-2.3-7.2-5.1-7.2c-2.9,0-5.3,1.6-5.7,7.2H587.6z"/>
		<path fill="#284233" d="M622.3,79.4l-0.7-3.5c-0.1-0.5-0.2-0.8-0.7-1c-0.9-0.3-2.5-0.5-4.4-0.5c-3.4,0-5.3,1.3-5.3,3.5
			c0,2.8,3.7,3.4,7.9,4.4c5.4,1.2,11.4,3.1,11.4,11.1c0,8.3-6.7,11.7-15.4,11.7c-6.2,0-12.2-1.6-13.5-2.4v-9.9l7.3,0.5l0.7,3.9
			c0.1,0.6,0.2,0.9,0.8,1c0.8,0.3,2.7,0.7,5.2,0.7c3.6,0,5.6-1,5.6-3.5c0-2.7-2.7-3.5-6.2-4.1c-5.7-1-13.2-2.2-13.2-11.2
			c0-8.4,7.2-11.9,15-11.9c5.4,0,10.6,1.2,12.5,2v9.9L622.3,79.4z"/>
	</g>
	<g>
		<path fill="#3F7548" d="M63.3,190.4c-6.4,3.9-16.4,6.9-26.6,6.9C11.3,197.2,0,181.4,0,160.1c0-26.2,16-38.9,38.4-38.9
			c10.9,0,20.6,3.1,24.9,5.9v22l-15-0.7l-1.7-9.2c-0.1-1-0.4-1.8-1.7-2.2c-1.7-0.6-4.3-1-7.1-1c-8.4,0-15.5,5.7-15.5,22.1
			c0,18.2,8.1,23.4,18.1,23.4c7,0,13.3-2.2,17.5-4.1L63.3,190.4z"/>
		<path fill="#3F7548" d="M114.9,195.5l-1.4-7.6l-0.7-0.1c-5.3,5.2-12.3,9.4-23.5,9.4c-17.6,0-20.4-12-20.4-20.7
			c0-14,8.7-20.4,26.2-21.6l16.1-1.1v-7.7c0-6.6-0.7-11.1-9.4-11.1c-6.7,0-10.2,1-10.2,9.4l-19.7-1.7c0-18.9,17.2-21.6,30.1-21.6
			c21.3,0,29.8,5.7,29.8,25.3v34c0,2.2,0.1,2.5,2.2,2.8l6.7,1.1v11.1H114.9z M111.2,165.4l-9.5,0.7c-8.3,0.6-11.2,2.7-11.2,8.3
			s3.4,7.7,8,7.7c4.8,0,9.5-2.7,12.7-5V165.4z"/>
		<path fill="#3F7548" d="M195,191.6c-6,2.9-14.8,5.6-22.8,5.6c-16.7,0-23-6.7-23-22.5V138c0-0.8,0-1.4-1.1-1.4h-9.8v-12.5
			c12.3-1.4,17.2-7.6,18.8-22.8h13.3v19.9c0,1,0,1.4,1.1,1.4h19.7v14h-20.9v33.5c0,8.3,2,11.5,9.5,11.5c3.9,0,8-1,11.3-2.2
			L195,191.6z"/>
		<path fill="#8A994A" d="M214.8,195.5v-11.3l6.3-0.8c2-0.3,2.2-0.7,2.2-2.8v-41c0-1.5-0.4-2.5-1.8-2.9l-7.6-2.7l1.5-11.3h24.6
			l1.7,11.2h0.8c4.6-7.1,10.8-12.6,19.7-12.6c3.2,0,9.7,0.6,12.2,1.3v25.5l-16.8-0.6l-1.4-7.4c-0.3-1.3-0.7-1.5-1.8-1.5
			c-3.6,0-8,3.1-10.1,4.9v37.1c0,2.2,0.1,2.7,2.2,2.8l13.9,1.1v11.2H214.8z"/>
		<path fill="#8A994A" d="M344,190.1c-8.7,4.2-18.2,7.1-28.7,7.1c-27,0-36.3-16.8-36.3-38.6c0-25.3,15.5-37.4,34.7-37.4
			c18.5,0,30.8,9.7,30.8,33.9c0,1.7-0.1,6.6-0.3,9.4h-42.8c0.7,9.9,5,16.5,16.5,16.5c5.5,0,11.3-1.3,20.9-4.8L344,190.1z
			 M323.8,151.2c-0.1-11.8-4.8-14.8-10.5-14.8c-6,0-10.9,3.4-11.8,14.8H323.8z"/>
		<path fill="#8A994A" d="M393.8,144.6l-1.4-7.3c-0.1-1.1-0.4-1.7-1.4-2c-1.8-0.6-5.2-1.1-9-1.1c-7,0-10.9,2.7-10.9,7.1
			c0,5.7,7.7,7,16.2,9c11.1,2.5,23.5,6.4,23.5,22.8c0,17.1-13.9,24.1-31.6,24.1c-12.7,0-25.2-3.4-27.7-5v-20.3l15,1.1l1.4,8
			c0.1,1.3,0.4,1.8,1.7,2.1c1.7,0.6,5.5,1.4,10.8,1.4c7.4,0,11.6-2.1,11.6-7.3c0-5.6-5.6-7.3-12.7-8.5c-11.8-2.1-27.2-4.6-27.2-23
			c0-17.4,14.8-24.5,30.9-24.5c11.1,0,21.8,2.5,25.8,4.1v20.3L393.8,144.6z"/>
		<path fill="#8A994A" d="M479.4,190.4c-6.4,3.9-16.4,6.9-26.6,6.9c-25.3,0-36.7-15.8-36.7-37.1c0-26.2,16-38.9,38.4-38.9
			c10.9,0,20.6,3.1,24.9,5.9v22l-15-0.7l-1.7-9.2c-0.1-1-0.4-1.8-1.7-2.2c-1.7-0.6-4.3-1-7.1-1c-8.4,0-15.5,5.7-15.5,22.1
			c0,18.2,8.1,23.4,18.1,23.4c7,0,13.3-2.2,17.5-4.1L479.4,190.4z"/>
		<path fill="#8A994A" d="M541.1,195.5L540,188l-0.7-0.1c-5.7,4.3-13,9.4-24.9,9.4c-14.7,0-20.3-8.4-20.3-24.6v-34.2
			c0-2.2-0.1-2.5-2.2-2.9l-6.7-1.4l1.4-11.5h28.7v46.3c0,8.5,1.4,11.8,7.4,11.8c6.2,0,11.2-3.5,14.4-6.4v-36c0-2.2-0.1-2.4-2.2-2.8
			l-6-1.4l1.5-11.5h27.9v58.1c0,1.8,0.1,2.5,2,2.7l7,1v11.2H541.1z"/>
		<path fill="#8A994A" d="M633.6,190.1c-8.7,4.2-18.2,7.1-28.7,7.1c-27,0-36.3-16.8-36.3-38.6c0-25.3,15.5-37.4,34.7-37.4
			c18.5,0,30.8,9.7,30.8,33.9c0,1.7-0.1,6.6-0.3,9.4h-42.8c0.7,9.9,5,16.5,16.5,16.5c5.5,0,11.3-1.3,20.9-4.8L633.6,190.1z
			 M613.5,151.2c-0.1-11.8-4.8-14.8-10.5-14.8c-6,0-10.9,3.4-11.8,14.8H613.5z"/>
	</g>
	<g>
		<path fill="#8A994A" d="M165.6,67.2c8.8,20.2-12.7,5.6-28.3,12.4S117.8,112.1,109,92c-8.4-19.2-3.1-41.5,12.5-48.4
			S157.2,48,165.6,67.2z"/>
		<path fill="#8A994A" d="M106.1,24.2c5.1,6.9,5.4,15.2,0.7,18.7c-4.7,3.5-12.7,0.8-17.7-6.1C84,30,81.8,19,86.5,15.5
			C91.2,12,101.1,17.4,106.1,24.2z"/>
		<path fill="#8A994A" d="M114.8,20.4c1.6,8.4,7.6,14.3,13.3,13.2c5.8-1.1,9.1-8.8,7.5-17.2c-1.6-8.4-8.2-17.4-13.9-16.3
			S113.2,12,114.8,20.4z"/>
		<path fill="#8A994A" d="M96.2,55c4.5,6.1,4.8,13.5,0.6,16.6c-4.2,3.1-11.2,0.7-15.7-5.4c-4.5-6.1-6.5-15.8-2.3-18.9
			C82.9,44.2,91.7,49,96.2,55z"/>
		<path fill="#8A994A" d="M145.9,33.3c1.4,7.4,6.7,12.7,11.8,11.7c5.1-1,8.1-7.8,6.7-15.2s-7.2-15.5-12.4-14.5
			C146.9,16.2,144.5,25.8,145.9,33.3z"/>
	</g>
</g>
</svg>
